<svg width="20" height="20" viewBox="0 0 20 20" fill="none" xmlns="http://www.w3.org/2000/svg">
<path d="M0 7.50006H20V11.8751H0V7.50006Z" fill="#E6E7E8"/>
<path d="M16.875 2.81256H3.125C1.05406 2.81256 0 4.35162 0 6.25006V7.50006H20V6.25006C20 4.35162 18.9459 2.81256 16.875 2.81256Z" fill="#FF9933"/>
<path d="M0 13.1251C0 15.0235 1.05406 16.5626 3.125 16.5626H16.875C18.9459 16.5626 20 15.0235 20 13.1251V11.8751H0V13.1251Z" fill="#128807"/>
<path fill-rule="evenodd" clip-rule="evenodd" d="M10.0969 7.68225C10.4962 7.68225 10.8865 7.80069 11.2184 8.02258C11.5504 8.24448 11.809 8.55985 11.9617 8.9288C12.1143 9.29774 12.1541 9.70368 12.076 10.0952C11.9979 10.4868 11.8054 10.8464 11.5228 11.1285C11.2402 11.4106 10.8804 11.6026 10.4887 11.6801C10.097 11.7576 9.69112 11.7172 9.32241 11.564C8.9537 11.4108 8.63873 11.1516 8.41735 10.8193C8.19597 10.487 8.07813 10.0965 8.07875 9.69725C8.07966 9.16258 8.29268 8.65011 8.67104 8.27233C9.04941 7.89455 9.5622 7.68233 10.0969 7.68225ZM8.75157 8.55569C8.78625 8.59506 8.7925 8.63725 8.76938 8.67256C8.75958 8.68883 8.74445 8.70119 8.72657 8.70756C8.71283 8.71267 8.69807 8.71437 8.68354 8.71252C8.66901 8.71067 8.65514 8.70532 8.64313 8.69694C8.58881 8.77472 8.54104 8.85688 8.50032 8.94256C8.5475 8.9735 8.56313 9.01225 8.5475 9.05506C8.53914 9.07685 8.52262 9.09453 8.50144 9.10433C8.48026 9.11413 8.45609 9.11529 8.43407 9.10756C8.41157 9.15256 8.36188 9.34256 8.36125 9.38256C8.38194 9.38652 8.40055 9.39771 8.41375 9.41413C8.4277 9.43043 8.43486 9.45145 8.43375 9.47288C8.42782 9.53163 8.39157 9.55663 8.33625 9.55881C8.3275 9.61538 8.32844 9.80475 8.33719 9.84194C8.39594 9.84819 8.42688 9.87381 8.43188 9.9185C8.43875 9.96663 8.41563 9.99788 8.35938 10.0198C8.37625 10.1126 8.40032 10.2038 8.43188 10.2932C8.45391 10.2865 8.47751 10.2873 8.49907 10.2954C8.52 10.3044 8.53657 10.3201 8.54532 10.3416C8.55313 10.3585 8.55469 10.376 8.55063 10.3944C8.54771 10.4081 8.54165 10.421 8.53292 10.4319C8.52419 10.4429 8.51302 10.4517 8.50032 10.4576C8.54219 10.5444 8.58844 10.6263 8.64313 10.7032C8.69188 10.6791 8.73438 10.6848 8.76313 10.7191C8.77578 10.7332 8.78298 10.7514 8.78344 10.7704C8.78441 10.7844 8.78196 10.7984 8.7763 10.8113C8.77064 10.8241 8.76193 10.8354 8.75094 10.8441C8.81344 10.9173 8.88 10.9841 8.9525 11.0457C8.99344 11.0098 9.03594 11.0041 9.0725 11.0298C9.08907 11.0413 9.10063 11.0566 9.10594 11.0754C9.10975 11.0887 9.11055 11.1026 9.10828 11.1162C9.10601 11.1299 9.10073 11.1428 9.09282 11.1541C9.17188 11.2085 9.25344 11.2554 9.33875 11.296C9.37188 11.2494 9.40969 11.2338 9.45063 11.2494C9.46846 11.2558 9.48393 11.2675 9.495 11.2829C9.51063 11.3079 9.51282 11.3354 9.50375 11.3648C9.59375 11.3966 9.68438 11.421 9.77813 11.4376C9.79657 11.3848 9.82844 11.3601 9.87094 11.3632C9.89063 11.3648 9.90844 11.3707 9.92407 11.3841C9.94594 11.4041 9.95625 11.4294 9.95438 11.4607C10.0506 11.4676 10.1447 11.4682 10.2381 11.4607C10.245 11.4004 10.2691 11.3701 10.3175 11.3632C10.3359 11.3606 10.3546 11.3644 10.3706 11.3738C10.3823 11.3804 10.3924 11.3896 10.4001 11.4006C10.4078 11.4117 10.4129 11.4243 10.415 11.4376C10.5094 11.4201 10.6009 11.396 10.6894 11.3644C10.6816 11.3054 10.6959 11.2701 10.7356 11.2516C10.7501 11.2454 10.7659 11.2429 10.7816 11.2444C10.7978 11.2457 10.8125 11.2507 10.8244 11.2613C10.8359 11.271 10.8456 11.2829 10.8569 11.2951C10.9421 11.2549 11.0238 11.2077 11.1013 11.1541C11.0694 11.1041 11.0881 11.0563 11.1141 11.0351C11.1231 11.0273 11.1336 11.0214 11.1449 11.0178C11.1563 11.0141 11.1682 11.0128 11.1801 11.0138C11.192 11.0148 11.2035 11.0182 11.2141 11.0237C11.2246 11.0292 11.234 11.0368 11.2416 11.046C11.3138 10.9841 11.3816 10.9169 11.4422 10.8448C11.4069 10.8044 11.4 10.7619 11.4259 10.7254C11.4364 10.709 11.4525 10.697 11.4713 10.6916C11.4846 10.6874 11.4987 10.6863 11.5125 10.6884C11.5263 10.6905 11.5395 10.6958 11.5509 10.7038C11.6056 10.6251 11.6531 10.5435 11.6938 10.4579C11.6481 10.4273 11.6316 10.3913 11.6453 10.3504C11.6503 10.3322 11.6613 10.3162 11.6766 10.3051C11.6887 10.2966 11.7026 10.2911 11.7173 10.2889C11.7319 10.2867 11.7469 10.288 11.7609 10.2926C11.7813 10.2485 11.8319 10.0629 11.8347 10.0179C11.8131 10.0139 11.7936 10.0024 11.7797 9.98538C11.7724 9.97694 11.767 9.96709 11.7637 9.95644C11.7604 9.94579 11.7594 9.93457 11.7606 9.9235C11.7618 9.90371 11.77 9.88499 11.7838 9.87069C11.7932 9.86078 11.8047 9.85311 11.8174 9.84824C11.8302 9.84337 11.8439 9.84143 11.8575 9.84256C11.8653 9.74804 11.8653 9.65303 11.8575 9.5585C11.7978 9.55256 11.7694 9.52944 11.7616 9.48225C11.758 9.46441 11.7607 9.4459 11.7691 9.42975C11.7755 9.41726 11.7848 9.40645 11.7961 9.39815C11.8074 9.38985 11.8205 9.3843 11.8344 9.38194C11.818 9.28857 11.7936 9.19678 11.7616 9.10756C11.7038 9.11725 11.6681 9.10163 11.6491 9.06163C11.6441 9.05093 11.6414 9.03936 11.6409 9.02758C11.6405 9.01581 11.6424 9.00406 11.6466 8.99304C11.6507 8.98201 11.6571 8.97193 11.6652 8.96337C11.6733 8.95481 11.683 8.94795 11.6938 8.94319C11.6533 8.85728 11.6055 8.775 11.5509 8.69725C11.5006 8.72131 11.4597 8.71569 11.4309 8.68131C11.4182 8.66679 11.4111 8.64815 11.4109 8.62881C11.4104 8.61508 11.413 8.6014 11.4186 8.58887C11.4243 8.57633 11.4328 8.56529 11.4434 8.55663C11.3817 8.48439 11.3145 8.417 11.2425 8.35506C11.1994 8.39194 11.1575 8.39663 11.1219 8.371C11.1057 8.36021 11.0939 8.34405 11.0884 8.32538C11.0846 8.31226 11.0837 8.29844 11.086 8.28495C11.0883 8.27146 11.0936 8.25867 11.1016 8.24756C11.0237 8.19326 10.9414 8.14549 10.8556 8.10475C10.8234 8.151 10.7872 8.16631 10.7463 8.15256C10.7281 8.14676 10.7123 8.13539 10.7009 8.12006C10.6927 8.10787 10.6874 8.09391 10.6856 8.0793C10.6837 8.0647 10.6854 8.04986 10.6903 8.036C10.6012 8.00376 10.5094 7.9794 10.4159 7.96319C10.3981 8.01381 10.3659 8.04006 10.3244 8.03756C10.3049 8.03694 10.2863 8.02991 10.2713 8.01756C10.2601 8.00817 10.2514 7.9962 10.2459 7.9827C10.2404 7.96921 10.2383 7.95457 10.2397 7.94006C10.1453 7.93204 10.0503 7.93214 9.95594 7.94038C9.94938 7.99663 9.925 8.02881 9.88344 8.03569C9.86475 8.03968 9.84527 8.03726 9.82813 8.02881C9.81535 8.02249 9.80425 8.01321 9.79578 8.00174C9.7873 7.99028 9.78168 7.97695 9.77938 7.96288C9.68598 7.97987 9.59411 8.00443 9.50469 8.03631C9.51469 8.09163 9.49907 8.12788 9.46094 8.14756C9.44438 8.156 9.42688 8.15944 9.4075 8.156C9.39294 8.15402 9.37915 8.14827 9.36748 8.13934C9.35581 8.13041 9.34666 8.1186 9.34094 8.10506C9.2875 8.12506 9.1175 8.2235 9.095 8.24819C9.11813 8.29444 9.11282 8.33538 9.08094 8.36475C9.07193 8.37271 9.06142 8.37877 9.05003 8.38258C9.03863 8.3864 9.02658 8.38788 9.0146 8.38695C9.00262 8.38601 8.99095 8.38268 8.98029 8.37715C8.96962 8.37162 8.96017 8.364 8.9525 8.35475C8.88039 8.41639 8.81321 8.48358 8.75157 8.55569Z" fill="#010088"/>
<path fill-rule="evenodd" clip-rule="evenodd" d="M10.9625 11.196C10.9588 11.1919 10.955 11.1891 10.9522 11.1848C10.7705 10.907 10.5883 10.6296 10.4056 10.3526C10.4016 10.3448 10.3969 10.3369 10.3931 10.3282C10.3506 10.2291 10.3091 10.1301 10.2656 10.0313C10.2642 10.0262 10.2622 10.0213 10.2597 10.0166C10.2422 10.0232 10.2263 10.0307 10.2075 10.0379L10.2138 10.0538C10.2528 10.1498 10.2903 10.246 10.33 10.3419C10.3406 10.3676 10.345 10.3944 10.3506 10.4213C10.3813 10.5648 10.41 10.7088 10.4409 10.8526L10.5466 11.366C10.5471 11.3672 10.5473 11.3686 10.5471 11.3699C10.5469 11.3712 10.5464 11.3725 10.5456 11.3735L10.5413 11.3626C10.4556 11.1004 10.3678 10.8385 10.2819 10.5763C10.2647 10.5251 10.2494 10.4744 10.2306 10.4232C10.2219 10.3976 10.2191 10.3713 10.215 10.3448C10.2041 10.2704 10.1947 10.1954 10.1825 10.121C10.1809 10.1032 10.1781 10.0857 10.1756 10.0685C10.1749 10.0614 10.1737 10.0543 10.1722 10.0473C10.1534 10.0491 10.1363 10.0516 10.1175 10.0538C10.1175 10.0613 10.1181 10.0691 10.1188 10.0769C10.1297 10.1685 10.1391 10.2604 10.1522 10.3516C10.1591 10.4016 10.1556 10.4507 10.1528 10.5007C10.1509 10.5429 10.1481 10.5851 10.1463 10.6276C10.1406 10.7132 10.1363 10.7985 10.1303 10.8838L10.1209 11.0601C10.1156 11.1601 10.1094 11.2598 10.1041 11.3591C10.1016 11.3873 10.1009 11.416 10.0981 11.4435L10.0906 11.3488L10.0809 11.1438L10.0697 10.961C10.0666 10.8985 10.0625 10.8363 10.0591 10.7738C10.0563 10.7329 10.0547 10.6919 10.0522 10.6516C10.0488 10.5869 10.0447 10.5223 10.0416 10.4582C10.0385 10.424 10.0393 10.3897 10.0441 10.3557C10.0506 10.3094 10.0556 10.2623 10.0613 10.2154C10.0675 10.1691 10.0728 10.1226 10.0784 10.0769C10.0791 10.0698 10.0791 10.0623 10.08 10.0538L10.0253 10.0466C10.0238 10.0591 10.0209 10.0713 10.0188 10.0838C10.0058 10.1793 9.99244 10.2747 9.97875 10.3701C9.975 10.4073 9.96032 10.4416 9.94782 10.4763C9.85157 10.7694 9.755 11.0629 9.6575 11.3557C9.65532 11.361 9.65438 11.366 9.65032 11.371C9.65032 11.3673 9.65032 11.3644 9.65188 11.361C9.69219 11.1635 9.73282 10.9657 9.77469 10.7682C9.80157 10.6369 9.82938 10.506 9.85594 10.3751L9.86344 10.3535C9.90376 10.2544 9.94251 10.1544 9.98376 10.0554C9.98519 10.0495 9.98729 10.0439 9.99001 10.0385C9.97279 10.0311 9.9555 10.0239 9.93813 10.0169C9.93594 10.0226 9.93251 10.0273 9.93063 10.0329C9.88751 10.1323 9.84532 10.2319 9.80219 10.3313C9.7995 10.3388 9.79615 10.346 9.79219 10.3529C9.6078 10.6322 9.42394 10.9119 9.24063 11.1919C9.23811 11.1962 9.23483 11.1999 9.23094 11.2029C9.2325 11.1979 9.23532 11.1938 9.23719 11.1894L9.68907 10.2935C9.69296 10.2854 9.69778 10.2777 9.70344 10.2707L9.89657 10.0116C9.90063 10.0073 9.90313 10.0032 9.90688 9.99851C9.89094 9.98694 9.87813 9.97632 9.86219 9.96413C9.85876 9.96819 9.85563 9.97163 9.85282 9.97569C9.78532 10.0604 9.71876 10.1457 9.65282 10.2301C9.64532 10.2379 9.63844 10.246 9.63001 10.2532C9.38376 10.4735 9.1375 10.6926 8.89032 10.9132C8.88532 10.9173 8.88032 10.9216 8.87407 10.9244C8.87688 10.9216 8.87844 10.9182 8.88032 10.916C9.08313 10.6894 9.28438 10.4632 9.48626 10.2366C9.49782 10.2241 9.50938 10.2116 9.52032 10.1982C9.54344 10.1713 9.56938 10.1476 9.59751 10.1263L9.82188 9.94976C9.82688 9.94601 9.83063 9.94194 9.83626 9.93819C9.82517 9.92322 9.8137 9.90853 9.80188 9.89413C9.79688 9.89726 9.79282 9.90038 9.78813 9.90382C9.70219 9.96819 9.61594 10.0319 9.53001 10.0966C9.52039 10.1039 9.51014 10.1103 9.49938 10.1157C9.20594 10.2638 8.91094 10.4119 8.61688 10.5601C8.61125 10.5626 8.60594 10.5657 8.59938 10.5657L8.61126 10.5573L9.16001 10.1979C9.25563 10.1351 9.35157 10.0723 9.44657 10.0091C9.45469 10.0044 9.46313 10.0004 9.47032 9.99663C9.57001 9.95444 9.66938 9.91194 9.76813 9.86944C9.77282 9.86757 9.77751 9.86569 9.78313 9.86288L9.76219 9.81132C9.75626 9.81288 9.75251 9.81444 9.74782 9.81601C9.64657 9.85632 9.54626 9.89726 9.44438 9.93726C9.42344 9.94507 9.40063 9.94882 9.37844 9.95351L8.69563 10.0954C8.60969 10.1138 8.52219 10.1319 8.43594 10.1498C8.43247 10.1506 8.42881 10.1501 8.42563 10.1485C8.44938 10.141 8.47313 10.1326 8.49657 10.1248C8.79157 10.0276 9.08626 9.93069 9.38032 9.83288C9.40344 9.82507 9.42813 9.82288 9.45157 9.81913C9.54657 9.80601 9.64126 9.79226 9.73532 9.77882C9.7411 9.7778 9.74683 9.77655 9.75251 9.77507C9.75063 9.75694 9.74782 9.73882 9.74626 9.72007L9.70063 9.72507L9.51188 9.74788C9.47657 9.75257 9.44157 9.75632 9.40688 9.76069C9.39844 9.76163 9.39032 9.76194 9.38219 9.76163L9.18344 9.75007L9.06594 9.74351L8.86344 9.73163L8.56813 9.71538C8.49688 9.71163 8.4275 9.70694 8.35657 9.70194C8.36782 9.70101 8.38032 9.69913 8.39251 9.69913L8.63469 9.68538L8.95469 9.66726L9.21969 9.65226L9.38594 9.64226C9.39251 9.64194 9.40032 9.64288 9.40688 9.64351L9.59751 9.66632L9.7325 9.68257H9.74626C9.74782 9.66476 9.75063 9.64788 9.75251 9.62851C9.74094 9.62601 9.72782 9.62413 9.71625 9.62194C9.63282 9.61038 9.55 9.59819 9.46657 9.58601C9.44924 9.58402 9.43194 9.58173 9.41469 9.57913C9.40513 9.57784 9.39571 9.57564 9.38657 9.57257C9.13813 9.49101 8.89126 9.40882 8.64313 9.32726C8.57408 9.30462 8.50512 9.2817 8.43626 9.25851C8.43031 9.25693 8.42469 9.25428 8.41969 9.25069L8.46313 9.25944L8.99344 9.36976C9.13532 9.39944 9.27938 9.42882 9.42126 9.45882C9.4298 9.4607 9.43816 9.46332 9.44626 9.46663C9.54626 9.50601 9.64532 9.54663 9.74626 9.58663L9.76126 9.59257C9.76813 9.57538 9.77563 9.55882 9.78313 9.54101C9.77804 9.53797 9.77271 9.53535 9.76719 9.53319C9.66782 9.49132 9.56875 9.44851 9.46969 9.40569C9.46192 9.4024 9.4544 9.39854 9.44719 9.39413C9.16688 9.21069 8.88782 9.02632 8.60719 8.84257C8.60349 8.84052 8.60054 8.83734 8.59876 8.83351L8.61001 8.83976C8.88938 8.98038 9.16907 9.12101 9.44907 9.26132C9.49532 9.28444 9.54032 9.31226 9.58157 9.34382C9.64969 9.39663 9.71907 9.44726 9.78844 9.49913C9.79313 9.50257 9.79719 9.50569 9.80219 9.50882L9.83657 9.46538L9.82438 9.45476L9.57032 9.25507C9.56157 9.24819 9.55469 9.24101 9.54719 9.23351C9.32594 8.98569 9.10438 8.73757 8.88375 8.48976C8.88057 8.4872 8.87809 8.48386 8.87657 8.48007C8.88313 8.48069 8.88563 8.48507 8.88844 8.48788C9.02251 8.60663 9.15532 8.72538 9.28844 8.84413L9.63282 9.15101C9.63907 9.15663 9.64501 9.16351 9.65063 9.16976L9.84782 9.42038C9.85282 9.42601 9.85657 9.43194 9.86219 9.43944L9.90751 9.40476C9.90469 9.40038 9.90094 9.39694 9.89876 9.39288C9.83438 9.30694 9.77032 9.22069 9.70532 9.13507C9.69862 9.12498 9.69247 9.11455 9.68688 9.10382C9.53688 8.80851 9.38813 8.51194 9.23907 8.21632C9.23626 8.21069 9.23344 8.20632 9.23282 8.20038C9.23563 8.20351 9.23844 8.20632 9.24032 8.20913L9.55969 8.69726L9.78563 9.04101C9.79344 9.05413 9.80219 9.06788 9.80719 9.08226C9.84938 9.17851 9.89 9.27507 9.93094 9.37132C9.93375 9.37569 9.93563 9.38038 9.93844 9.38601L9.99032 9.36444L9.98469 9.35132C9.94563 9.25382 9.90751 9.15632 9.86782 9.05944C9.85688 9.03476 9.85282 9.00913 9.8475 8.98351C9.81344 8.82069 9.78063 8.65757 9.74657 8.49444C9.71313 8.33757 9.68126 8.18194 9.64844 8.02444C9.64782 8.02351 9.64844 8.02226 9.64969 8.01913L9.67719 8.10257C9.77532 8.39726 9.8725 8.69257 9.96876 8.98788C9.97688 9.01101 9.97969 9.03632 9.98313 9.06038C9.99469 9.14226 10.0063 9.22476 10.0194 9.30726C10.0216 9.32288 10.0225 9.33851 10.0256 9.35569L10.08 9.34882V9.32819C10.0722 9.26288 10.0638 9.19726 10.0563 9.13226C10.0516 9.09413 10.0481 9.05694 10.0428 9.01976C10.0397 8.99475 10.0397 8.96945 10.0428 8.94444C10.045 8.90194 10.0481 8.85976 10.05 8.81757L10.0653 8.56288C10.0681 8.51726 10.0691 8.47101 10.0719 8.42538C10.0759 8.36601 10.0791 8.30569 10.0825 8.24601C10.0853 8.20226 10.0875 8.15819 10.0894 8.11476C10.0919 8.06319 10.0959 8.01194 10.1003 7.96069C10.1016 7.97476 10.1022 7.98913 10.1028 8.00413C10.1072 8.06694 10.1103 8.12976 10.1141 8.19288L10.1303 8.47913L10.14 8.63976C10.145 8.73257 10.1494 8.82569 10.1547 8.91851C10.1563 8.93257 10.1569 8.94569 10.1578 8.95944C10.1619 8.99569 10.1547 9.03163 10.1516 9.06757L10.1316 9.23132C10.1284 9.26226 10.1238 9.29319 10.12 9.32444C10.1194 9.33194 10.1194 9.34007 10.1172 9.34913C10.1366 9.35194 10.1541 9.35382 10.1734 9.35632C10.1763 9.34288 10.1775 9.33038 10.1797 9.31726C10.1947 9.21569 10.2091 9.11413 10.2234 9.01194C10.2247 9.00444 10.2278 8.99663 10.2297 8.98882C10.3316 8.68319 10.4316 8.37726 10.5328 8.07101C10.5378 8.05694 10.5416 8.04351 10.5494 8.03007C10.5485 8.0372 10.5474 8.04429 10.5459 8.05132C10.5003 8.27257 10.4528 8.49319 10.4075 8.71382C10.3872 8.81726 10.3656 8.92101 10.3441 9.02444C10.3425 9.03302 10.3398 9.04133 10.3359 9.04913L10.2153 9.35069C10.2131 9.35507 10.2116 9.35976 10.2094 9.36538C10.2281 9.37257 10.2434 9.37976 10.2616 9.38694L10.2688 9.37194L10.3947 9.07601C10.3997 9.06601 10.4034 9.05632 10.41 9.04819L10.9553 8.21632C10.9588 8.21194 10.9616 8.20757 10.9669 8.20444C10.9647 8.20882 10.9631 8.21319 10.9603 8.21757L10.5119 9.10819C10.5072 9.11663 10.5025 9.12507 10.4969 9.13257C10.4319 9.21913 10.3666 9.30569 10.3025 9.39163C10.2994 9.39656 10.296 9.40126 10.2922 9.40569L10.3366 9.44038C10.3401 9.43666 10.3433 9.43269 10.3463 9.42851C10.4125 9.34413 10.4784 9.25944 10.5456 9.17507C10.553 9.16558 10.5613 9.15679 10.5703 9.14882C10.8172 8.92819 11.0644 8.70788 11.3116 8.48788C11.3156 8.48444 11.3184 8.48101 11.325 8.47913L11.3169 8.48913C11.2159 8.60319 11.115 8.71663 11.0125 8.83007C10.8906 8.96601 10.7703 9.10163 10.6494 9.23757C10.6431 9.24444 10.6356 9.25038 10.6291 9.25601L10.375 9.45569L10.3625 9.46569C10.3744 9.48069 10.385 9.49507 10.3975 9.51007L10.4109 9.50007L10.6713 9.30507C10.6779 9.30033 10.6848 9.29595 10.6919 9.29194C10.9919 9.14132 11.29 8.99132 11.5881 8.84069C11.5931 8.83851 11.5972 8.83663 11.6025 8.83663C11.5888 8.84569 11.5759 8.85444 11.5622 8.86288C11.2925 9.04007 11.0228 9.21726 10.7522 9.39444C10.7447 9.39882 10.7378 9.40319 10.7297 9.40663C10.63 9.44976 10.5294 9.49226 10.4306 9.53507L10.4147 9.54132C10.4231 9.55882 10.4291 9.57538 10.4366 9.59288L10.4509 9.58819C10.5513 9.54851 10.6509 9.50694 10.7522 9.46851C10.7772 9.45851 10.8047 9.45413 10.8319 9.44851L11.2922 9.35288C11.4353 9.32351 11.5772 9.29351 11.7206 9.26382C11.7338 9.26101 11.7459 9.25819 11.7597 9.25569C11.7631 9.25569 11.7663 9.25507 11.7713 9.25694L11.7275 9.27132C11.4222 9.37226 11.1178 9.47288 10.8125 9.57257C10.7894 9.58069 10.7638 9.58288 10.7397 9.58663C10.6713 9.59694 10.6038 9.60601 10.5372 9.61569C10.5128 9.61913 10.4888 9.62288 10.4644 9.62601L10.4466 9.62913C10.4484 9.64757 10.4513 9.66476 10.4525 9.68476L10.4997 9.67976L10.6684 9.65976C10.7106 9.65444 10.7547 9.64851 10.7988 9.64444C10.8184 9.64288 10.8384 9.64476 10.8588 9.64569C10.9016 9.64757 10.9444 9.65132 10.9891 9.65319L11.2416 9.66819C11.2791 9.67038 11.3166 9.67194 11.3553 9.67444L11.6128 9.68913C11.6738 9.69288 11.7366 9.69569 11.7972 9.69944C11.8122 9.7003 11.8272 9.70166 11.8422 9.70351L11.7966 9.70726L11.6075 9.71757L11.3734 9.73132L11.1969 9.74069C11.1156 9.74569 11.0328 9.75038 10.9509 9.75569C10.9059 9.75757 10.8597 9.76194 10.8144 9.76226C10.7884 9.76288 10.7613 9.75788 10.7359 9.75507C10.6804 9.74856 10.6249 9.74189 10.5694 9.73507L10.4628 9.72226H10.4525C10.4513 9.74038 10.4484 9.75819 10.4466 9.77726C10.5567 9.79356 10.6669 9.8095 10.7772 9.82507C10.8097 9.82913 10.8381 9.84194 10.8688 9.85163L11.7575 10.1451C11.7633 10.1463 11.7687 10.1487 11.7734 10.1523C11.7659 10.151 11.7588 10.1498 11.7513 10.1491L10.9794 9.98819L10.7756 9.94569C10.7691 9.94382 10.7603 9.94132 10.7531 9.93788C10.6528 9.89819 10.5522 9.85757 10.4513 9.81726L10.4378 9.81257C10.4305 9.82968 10.4229 9.84666 10.415 9.86351L10.4316 9.87132C10.5313 9.91382 10.6303 9.95601 10.7294 9.99882C10.7372 10.0023 10.745 10.0063 10.7531 10.0119L11.585 10.5569C11.5891 10.5601 11.5944 10.5638 11.5978 10.5698C11.5938 10.5673 11.5891 10.5657 11.5856 10.5632L11.1522 10.3457C11.0009 10.2688 10.8484 10.1926 10.6956 10.1157C10.6859 10.1109 10.6768 10.1049 10.6684 10.0979C10.5825 10.0338 10.4956 9.96944 10.4097 9.90476C10.4059 9.90152 10.4018 9.89859 10.3975 9.89601C10.3856 9.91038 10.375 9.92444 10.3625 9.93944L10.3744 9.94882C10.4581 10.0157 10.5434 10.0826 10.6275 10.1491C10.6371 10.156 10.6458 10.164 10.6534 10.1729L11.3156 10.9138C11.3183 10.9175 11.3204 10.9216 11.3219 10.926C11.3184 10.9223 11.3138 10.9198 11.3103 10.9169C11.0619 10.6948 10.8131 10.4738 10.5641 10.2519C10.5584 10.2469 10.5534 10.2413 10.5491 10.2351L10.3466 9.97694C10.3438 9.97288 10.3403 9.96913 10.3369 9.96507C10.3225 9.97694 10.3084 9.98757 10.2941 10.0001C10.2953 10.0038 10.2981 10.0079 10.3006 10.0116L10.4972 10.2735C10.5028 10.2811 10.5078 10.2892 10.5122 10.2976C10.6613 10.5932 10.81 10.8894 10.9588 11.1854C10.9612 11.1894 10.9628 11.1939 10.9634 11.1985H10.9625V11.196Z" fill="#010088"/>
<path fill-rule="evenodd" clip-rule="evenodd" d="M10.9594 11.196C10.9625 11.1991 10.9644 11.2026 10.9669 11.2054C10.9653 11.206 10.9653 11.2069 10.9634 11.2072C10.9628 11.2029 10.9606 11.2001 10.96 11.196H10.9594Z" fill="#010088"/>
</svg>
